{
  "accessors": [
    {
      "bufferView": 1,
      "componentType": 5126,
      "count": 852,
      "max": [
        0.008150000125169754,
        -0.0029599999543279409,
        0.0047100000083446503
      ],
      "min": [
        -0.008150000125169754,
        -0.0048600002191960812,
        -0.00079999997979030013
      ],
      "type": "VEC3"
    },
    {
      "bufferView": 1,
      "byteOffset": 10224,
      "componentType": 5126,
      "count": 852,
      "max": [
        1,
        1,
        1
      ],
      "min": [
        -1,
        -1,
        -1
      ],
      "type": "VEC3"
    },
    {
      "bufferView": 0,
      "componentType": 5125,
      "count": 2520,
      "max": [
        851
      ],
      "min": [
        0
      ],
      "type": "SCALAR"
    },
    {
      "bufferView": 1,
      "byteOffset": 20448,
      "componentType": 5126,
      "count": 152,
      "max": [
        0.0070400000549852848,
        -0.0046000001020729542,
        0.0043999999761581421
      ],
      "min": [
        -0.0070400000549852848,
        -0.0047300001606345177,
        -0.00054999999701976776
      ],
      "type": "VEC3"
    },
    {
      "bufferView": 1,
      "byteOffset": 22272,
      "componentType": 5126,
      "count": 152,
      "max": [
        0,
        1,
        0
      ],
      "min": [
        0,
        -1,
        0
      ],
      "type": "VEC3"
    },
    {
      "bufferView": 0,
      "byteOffset": 10080,
      "componentType": 5125,
      "count": 432,
      "max": [
        151
      ],
      "min": [
        0
      ],
      "type": "SCALAR"
    },
    {
      "bufferView": 1,
      "byteOffset": 24096,
      "componentType": 5126,
      "count": 7682,
      "max": [
        0.014240000396966934,
        0.0042699999175965786,
        0.014860000461339951
      ],
      "min": [
        -0.014240000396966934,
        -0.0042099999263882637,
        -0.011549999937415123
      ],
      "type": "VEC3"
    },
    {
      "bufferView": 1,
      "byteOffset": 116280,
      "componentType": 5126,
      "count": 7682,
      "max": [
        1,
        0.99993240833282471,
        0.99999886751174927
      ],
      "min": [
        -1,
        -0.99993383884429932,
        -0.99999886751174927
      ],
      "type": "VEC3"
    },
    {
      "bufferView": 0,
      "byteOffset": 11808,
      "componentType": 5125,
      "count": 46080,
      "max": [
        7681
      ],
      "min": [
        0
      ],
      "type": "SCALAR"
    },
    {
      "bufferView": 2,
      "componentType": 5126,
      "count": 151,
      "max": [
        2.5
      ],
      "min": [
        0
      ],
      "type": "SCALAR"
    },
    {
      "bufferView": 3,
      "componentType": 5126,
      "count": 151,
      "max": [
        0,
        0,
        1,
        1
      ],
      "min": [
        0,
        0,
        -0.99977999925613403,
        0
      ],
      "type": "VEC4"
    }
  ],
  "animations": [
    {
      "channels": [
        {
          "sampler": 0,
          "target": {
            "node": 3,
            "path": "rotation"
          }
        }
      ],
      "name": "starAction",
      "samplers": [
        {
          "input": 9,
          "interpolation": "LINEAR",
          "output": 10
        }
      ]
    }
  ],
  "asset": {
    "extras": {
      "author": "JeremyW (https://sketchfab.com/JeremyW)",
      "license": "CC-BY-4.0 (http://creativecommons.org/licenses/by/4.0/)",
      "source": "https://sketchfab.com/3d-models/star-b092c1d27d954c8e9c051299ef74038d",
      "title": "Star"
    },
    "generator": "Sketchfab-5.38.0",
    "version": "2.0"
  },
  "bufferViews": [
    {
      "buffer": 0,
      "byteLength": 196128,
      "byteOffset": 0,
      "name": "floatBufferViews",
      "target": 34963
    },
    {
      "buffer": 0,
      "byteLength": 208464,
      "byteOffset": 196128,
      "byteStride": 12,
      "name": "floatBufferViews",
      "target": 34962
    },
    {
      "buffer": 0,
      "byteLength": 604,
      "byteOffset": 404592,
      "name": "floatBufferViews"
    },
    {
      "buffer": 0,
      "byteLength": 2416,
      "byteOffset": 405196,
      "byteStride": 16,
      "name": "floatBufferViews"
    }
  ],
  "buffers": [
    {
      "byteLength": 407612,
      "uri": "scene.bin"
    }
  ],
  "materials": [
    {
      "doubleSided": true,
      "emissiveFactor": [
        0,
        0,
        0
      ],
      "name": "glassesFrames",
      "pbrMetallicRoughness": {
        "baseColorFactor": [
          0.015505889270650101,
          0.3429524472614176,
          0.80000001190000003,
          1
        ],
        "metallicFactor": 0,
        "roughnessFactor": 0.59999999999999998
      }
    },
    {
      "doubleSided": true,
      "emissiveFactor": [
        0,
        0,
        0
      ],
      "name": "lens",
      "pbrMetallicRoughness": {
        "baseColorFactor": [
          0,
          0,
          0,
          1
        ],
        "metallicFactor": 0,
        "roughnessFactor": 0.59999999999999998
      }
    },
    {
      "doubleSided": true,
      "emissiveFactor": [
        0,
        0,
        0
      ],
      "name": "Star",
      "pbrMetallicRoughness": {
        "baseColorFactor": [
          1,
          0.76815110450000001,
          0.0343398117,
          1
        ],
        "metallicFactor": 0,
        "roughnessFactor": 0.59999999999999998
      }
    }
  ],
  "meshes": [
    {
      "name": "star_0",
      "primitives": [
        {
          "attributes": {
            "NORMAL": 1,
            "POSITION": 0
          },
          "indices": 2,
          "material": 0,
          "mode": 4
        }
      ]
    },
    {
      "name": "star_1",
      "primitives": [
        {
          "attributes": {
            "NORMAL": 4,
            "POSITION": 3
          },
          "indices": 5,
          "material": 1,
          "mode": 4
        }
      ]
    },
    {
      "name": "star_2",
      "primitives": [
        {
          "attributes": {
            "NORMAL": 7,
            "POSITION": 6
          },
          "indices": 8,
          "material": 2,
          "mode": 4
        }
      ]
    }
  ],
  "nodes": [
    {
      "children": [
        1
      ],
      "name": "RootNode (gltf orientation matrix)",
      "rotation": [
        -0.70710678118654746,
        -0,
        -0,
        0.70710678118654757
      ]
    },
    {
      "children": [
        2
      ],
      "name": "RootNode (model correction matrix)"
    },
    {
      "children": [
        3
      ],
      "name": "Root"
    },
    {
      "children": [
        4,
        5,
        6
      ],
      "name": "star",
      "scale": [
        8,
        8,
        8
      ],
      "translation": [
        0,
        0.60123997926712036,
        0.41760000586509705
      ]
    },
    {
      "mesh": 0,
      "name": "star_0"
    },
    {
      "mesh": 1,
      "name": "star_1"
    },
    {
      "mesh": 2,
      "name": "star_2"
    }
  ],
  "scene": 0,
  "scenes": [
    {
      "name": "OSG_Scene",
      "nodes": [
        0
      ]
    }
  ]
}

